# AST/ASF file generated using VICON BodyLanguage
# -----------------------------------------------
:version 1.10
:name VICON
:units
  mass 1.0
  length 0.45
  angle deg
:documentation
   .ast/.asf automatically generated from VICON data using
   VICON BodyBuilder and BodyLanguage model FoxedUp or BRILLIANT.MOD
:root
   order TX TY TZ RX RY RZ
   axis XYZ
   position 0 0 0  
   orientation 0 0 0 
:bonedata
  begin
     id 1 
     name lhipjoint
     direction 0.584852 -0.759097 0.285867 
     length 2.43633 
     axis 0 0 0  XYZ
  end
  begin
     id 2 
     name lfemur
     direction 0.34202 -0.939693 0  
     length 7.14704  
     axis 0 0 20  XYZ
    dof rx ry rz
    limits (-160.0 20.0)
           (-70.0 70.0)
           (-60.0 70.0)
  end
  begin
     id 3 
     name ltibia
     direction 0.342022 -0.939692 0   
     length 7.68483   
     axis 0 0 20   XYZ
    dof rx
    limits (-10.0 170.0)
  end
  begin
     id 4 
     name lfoot
     direction 0.0999605 -0.274639 0.956337   
     length 2.40452   
     axis -90 7.62852e-016 20   XYZ
    dof rx rz
    limits (-45.0 90.0)
           (-70.0 20.0)
  end
  begin
     id 5 
     name ltoes
     direction 1.53468e-011 -4.21881e-011 1   
     length 1.19837   
     axis -90 7.62852e-016 20   XYZ
    dof rx
    limits (-90.0 20.0)
  end
  begin
     id 6 
     name rhipjoint
     direction -0.569886 -0.769002 0.289597   
     length 2.40495  
     axis 0 0 0  XYZ 
  end
  begin
     id 7 
     name rfemur
     direction -0.34202 -0.939693 0   
     length 7.45086   
     axis 0 0 -20   XYZ
    dof rx ry rz
    limits (-160.0 20.0)
           (-70.0 70.0)
           (-70.0 60.0)
  end
  begin
     id 8 
     name rtibia
     direction -0.34202 -0.939693 0   
     length 7.76831   
     axis 0 0 -20   XYZ
    dof rx
    limits (-10.0 170.0)
 end
 begin
     id 9 
     name rfoot
     direction -0.0798572 -0.219406 0.97236   
     length 2.35911  
     axis -90 -7.62852e-016 -20   XYZ
    dof rx rz
    limits (-45.0 90.0)
           (-20.0 70.0)
  end
  begin
     id 10 
     name rtoes
     direction -1.53469e-011 -4.21728e-011 1   
     length 1.18261   
     axis -90 -7.62852e-016 -20   XYZ
    dof rx
    limits (-90.0 20.0)
  end
  begin
     id 11 
     name lowerback
     direction 0.0242088 0.999437 0.0232389   
     length 2.1561   
     axis 0 0 0   XYZ
    dof rx ry rz
    limits (-20.0 45.0)
           (-30.0 30.0)
           (-30.0 30.0)
  end
  begin
     id 12 
     name upperback
     direction -0.0356893 0.999013 -0.0264323   
     length 2.14431   
     axis 0 0 0   XYZ
    dof rx ry rz
    limits (-20.0 45.0)
           (-30.0 30.0)
           (-30.0 30.0)
  end
  begin
     id 13 
     name thorax
     direction -0.0472163 0.998194 -0.0371284   
     length 2.16169   
     axis 0 0 0   XYZ
    dof rx ry rz
    limits (-20.0 45.0)
           (-30.0 30.0)
           (-30.0 30.0)
  end
  begin
     id 14 
     name lowerneck
     direction 0.00863244 0.999921 0.00911972   
     length 1.58651   
     axis 0 0 0   XYZ
    dof rx ry rz
    limits (-20.0 45.0)
           (-30.0 30.0)
           (-30.0 30.0)
  end
  begin
     id 15 
     name upperneck
     direction 0.149523 0.979068 -0.138086   
     length 1.57486   
     axis 0 0 0   XYZ
    dof rx ry rz
    limits (-20.0 45.0)
           (-30.0 30.0)
           (-30.0 30.0)
  end
  begin
     id 16
     name head
     direction 0.0445219 0.997708 -0.0509576  
     length 1.6019  
     axis 0 0 0   XYZ
    dof rx ry rz
    limits (-20.0 45.0)
           (-30.0 30.0)
           (-30.0 30.0)
  end
  begin
     id 17 
     name lclavicle
     direction 0.911271 0.381667 -0.154644  
     length 3.80848  
     axis 0 0 0   XYZ
    dof ry rz
    limits (-20.0 10.0)
           (0.0 20.0)
  end
  begin
     id 18 
     name lhumerus
     direction 1 -4.49003e-011 2.1308e-027   
     length 5.19069   
     axis 180 -30 -90   XYZ
    dof rx ry rz
    limits (-60.0 90.0)
           (-90.0 90.0)
           (-90.0 90.0)
  end
  begin
     id 19
     name lradius
     direction 1 -4.48914e-011 4.01554e-027   
     length 3.30016   
     axis 180 -30 -90   XYZ
    dof rx
    limits (-10.0 170.0)
  end
  begin
     id 20
     name lwrist
     direction 1 -4.49003e-011 1.1934e-026   
     length 1.65008   
     axis -8.46377e-015 90 90   XYZ
    dof ry
    limits (-180.0 0.0)
 end
  begin
     id 21 
     name lhand
     direction 1 -4.49034e-011 2.38659e-026   
     length 0.707698   
     axis -1.52313e-014 90 90   XYZ
    dof rx rz
    limits (-90.0 90.0)
           (-45.0 45.0)
  end
  begin
     id 22 
     name lfingers
     direction 1 -4.48691e-011 4.77775e-026   
     length 0.570564   
     axis -3.04623e-014 90 90   XYZ
    dof rx
    limits (0.0 90.0)
  end
  begin
     id 23
     name lthumb
     direction 0.707107 -6.34832e-011 0.707107   
     length 0.819219   
     axis -90 45 -1.62303e-014   XYZ
    dof rx rz
    limits (-45.0 45.0)
           (-45.0 45.0)
  end
  begin
     id 24 
     name rclavicle
     direction -0.815579 0.573708 -0.0754329   
     length 3.54371  
     axis 0 0 0   XYZ 
    dof ry rz
    limits (-10.0 20.0)
           (-20.0 0.0)
  end
  begin
     id 25 
     name rhumerus
     direction -1 -4.48956e-011 3.05351e-028  
     length 5.23924   
     axis 180 30 90   XYZ
    dof rx ry rz
    limits (-90.0 60.0)
           (-90.0 90.0)
           (-90.0 90.0)
  end
  begin
     id 26 
     name rradius
     direction -1 -4.49013e-011 3.53849e-027   
     length 3.32953   
     axis 180 30 90   XYZ
    dof rx
    limits (-10.0 170.0)
  end
  begin
     id 27 
     name rwrist
     direction -1 -4.48901e-011 1.19374e-026   
     length 1.66477   
     axis -8.46377e-015 -90 -90   XYZ
    dof ry
    limits (-180.0 0.0)
  end
  begin
     id 28
     name rhand
     direction -1 -4.48877e-011 2.38764e-026   
     length 0.607414   
     axis -1.52313e-014 -90 -90   XYZ
    dof rx rz
    limits (-90.0 90.0)
           (-45.0 45.0)
  end
  begin
     id 29
     name rfingers
     direction -1 -4.48882e-011 4.77521e-026   
     length 0.489712   
     axis -3.04623e-014 -90 -90   XYZ
    dof rx
    limits (0.0 90.0)
  end
  begin
     id 30
     name rthumb
     direction -0.707107 -6.34974e-011 0.707107   
     length 0.703132   
     axis -90 -45 1.62303e-014   XYZ
    dof rx rz
    limits (-45.0 45.0)
           (-45.0 45.0)
  end
:hierarchy
  begin
    root lhipjoint rhipjoint lowerback
    lhipjoint lfemur
    lfemur ltibia
    ltibia lfoot
    lfoot ltoes
    rhipjoint rfemur
    rfemur rtibia
    rtibia rfoot
    rfoot rtoes
    lowerback upperback
    upperback thorax
    thorax lowerneck lclavicle rclavicle
    lowerneck upperneck
    upperneck head
    lclavicle lhumerus
    lhumerus lradius
    lradius lwrist
    lwrist lhand lthumb
    lhand lfingers
    rclavicle rhumerus
    rhumerus rradius
    rradius rwrist
    rwrist rhand rthumb
    rhand rfingers
  end

#!OML:ASF E:\VariousWalksJay\Project 1\Capture day 1\Session 1\Actor2.ASF
:FULLY-SPECIFIED
:DEGREES
241
root 28.7893 14.8428 -26.9478 15.289 -41.5891 1.31798
lowerback 43.1514 -3.14441 3.58266
upperback 20.4074 -3.91694 -2.02952
thorax 2.26542 -1.96282 -2.68493
lowerneck 1.82301 1.83512 2.7574
upperneck -35.2252 2.2788 -0.858009
head -11.7711 0.422619 -0.968254
rclavicle -1.59028e-014 -4.41799e-014
rhumerus 3.14024 22.9966 -66.5045
rradius 112.386
rwrist -6.31401
rhand -34.6795 -14.375
rfingers 7.12502
rthumb -7.83547 -44.2098
lclavicle -1.59028e-014 -4.41799e-014
lhumerus 71.3508 9.10025 30.8792
lradius 71.8838
lwrist 58.8637
lhand -32.6486 15.922
lfingers 7.12502
lthumb -5.87492 45.8206
rfemur -86.271 0.879941 14.9402
rtibia 75.6146
rfoot -20.2813 -18.2068
rtoes -14.4165
lfemur -60.2228 1.218 -34.1274
ltibia 73.5712
lfoot -30.6958 18.2958
ltoes -4.38622
242
root 28.7756 14.8494 -26.9201 15.1674 -41.471 1.32866
lowerback 43.1084 -3.17308 3.57065
upperback 20.4379 -3.95569 -2.04936
thorax 2.3076 -1.98007 -2.68963
lowerneck 1.9724 1.82178 2.77165
upperneck -35.1948 2.28546 -0.811448
head -11.789 0.421017 -0.955853
rclavicle 3.57812e-015 -4.51241e-014
rhumerus 3.15567 23.0041 -66.5343
rradius 112.465
rwrist -6.37659
rhand -34.6889 -14.4653
rfingers 7.12502
rthumb -7.84456 -44.2998
lclavicle 3.57812e-015 -4.51241e-014
lhumerus 71.4725 9.13382 30.8709
lradius 71.717
lwrist 58.8034
lhand -32.5866 15.8984
lfingers 7.12502
lthumb -5.81511 45.7986
rfemur -86.2923 1.06542 14.9102
rtibia 73.3212
rfoot -20.5362 -17.9003
rtoes -14.9525
lfemur -59.9155 1.24729 -34.1726
ltibia 73.5165
lfoot -30.783 18.2593
ltoes -4.46591
243
root 28.7606 14.8563 -26.8912 15.0331 -41.351 1.33883
lowerback 43.0576 -3.20212 3.56017
upperback 20.466 -3.99422 -2.06783
thorax 2.34903 -1.99724 -2.69392
lowerneck 2.11102 1.81206 2.79226
upperneck -35.1407 2.29681 -0.769748
head -11.7947 0.422163 -0.946613
rclavicle 6.36111e-015 -2.23633e-014
rhumerus 3.14992 23.021 -66.5773
rradius 112.525
rwrist -6.43473
rhand -34.6969 -14.5527
rfingers 7.12502
rthumb -7.85219 -44.3869
lclavicle 6.36111e-015 -2.23633e-014
lhumerus 71.5723 9.13954 30.8234
lradius 71.5597
lwrist 58.7717
lhand -32.5506 15.8782
lfingers 7.12502
lthumb -5.78037 45.7793
rfemur -86.2352 1.25973 14.8699
rtibia 70.9421
rfoot -20.7853 -17.6634
rtoes -15.3702
lfemur -59.584 1.26267 -34.2092
ltibia 73.4601
lfoot -30.8721 18.2429
ltoes -4.55542
244
root 28.7444 14.8635 -26.8608 14.8847 -41.2306 1.34567
lowerback 43.0012 -3.22966 3.55236
upperback 20.4912 -4.02992 -2.08323
thorax 2.38908 -2.01314 -2.69739
lowerneck 2.24178 1.80488 2.82108
upperneck -35.0643 2.31087 -0.735084
head -11.7892 0.42514 -0.941544
rclavicle 3.29983e-014 -2.29596e-014
rhumerus 3.12068 23.0456 -66.6302
rradius 112.563
rwrist -6.49442
rhand -34.7014 -14.6396
rfingers 7.12502
rthumb -7.8566 -44.4736
lclavicle 3.29983e-014 -2.29596e-014
lhumerus 71.6519 9.11216 30.7369
lradius 71.4108
lwrist 58.7712
lhand -32.5255 15.8676
lfingers 7.12502
lthumb -5.75608 45.7695
rfemur -86.0989 1.46352 14.8233
rtibia 68.4943
rfoot -21.0204 -17.4906
rtoes -15.6846
lfemur -59.225 1.2668 -34.2363
ltibia 73.4038
lfoot -30.9656 18.2463
ltoes -4.65287
245
root 28.7269 14.8708 -26.8287 14.7208 -41.1113 1.34648
lowerback 42.9405 -3.25551 3.54924
upperback 20.5143 -4.06201 -2.09579
thorax 2.42805 -2.02727 -2.7015
lowerneck 2.3658 1.79983 2.85879
upperneck -34.9671 2.32707 -0.707685
head -11.7736 0.42958 -0.940819
rclavicle 6.12257e-014 -9.74045e-015
rhumerus 3.06636 23.0771 -66.6902
rradius 112.583
rwrist -6.56158
rhand -34.7015 -14.7261
rfingers 7.12502
rthumb -7.85666 -44.5601
lclavicle 6.12257e-014 -9.74045e-015
lhumerus 71.7145 9.04882 30.6188
lradius 71.2653
lwrist 58.7979
lhand -32.5025 15.8684
lfingers 7.12502
lthumb -5.73392 45.7708
rfemur -85.8846 1.67657 14.776
rtibia 65.9967
rfoot -21.2318 -17.3668
rtoes -15.9194
lfemur -58.8355 1.26279 -34.253
ltibia 73.3496
lfoot -31.0664 18.2684
ltoes -4.75571
246
root 28.7078 14.8781 -26.7947 14.5401 -40.9952 1.33899
lowerback 42.8776 -3.27732 3.55167
upperback 20.5351 -4.08747 -2.1041
thorax 2.46572 -2.03821 -2.70619
lowerneck 2.48405 1.79543 2.90876
upperneck -34.8511 2.34292 -0.689826
head -11.7487 0.434102 -0.945644
rclavicle -2.70347e-014 -5.96354e-015
rhumerus 2.98243 23.112 -66.755
rradius 112.585
rwrist -6.63889
rhand -34.6965 -14.8124
rfingers 7.12502
rthumb -7.85181 -44.6466
lclavicle -2.70347e-014 -5.96354e-015
lhumerus 71.7657 8.93951 30.4819
lradius 71.1182
lwrist 58.8403
lhand -32.4777 15.8789
lfingers 7.12502
lthumb -5.70998 45.782
rfemur -85.5952 1.8985 14.7342
rtibia 63.4705
rfoot -21.4103 -17.2704
rtoes -16.112
lfemur -58.4126 1.25455 -34.2592
ltibia 73.2994
lfoot -31.178 18.3072
ltoes -4.85827
